<?xml version="1.0" encoding="UTF-8" standalone="no"?>
<!-- Created with Inkscape (http://www.inkscape.org/) -->

<svg
   version="1.1"
   id="svg824"
   xml:space="preserve"
   width="1213.675"
   height="243.30347"
   viewBox="0 0 1213.6751 243.30348"
   sodipodi:docname="Zorilov-Handyman-Logo.svg"
   inkscape:version="1.1 (c4e8f9e, 2021-05-24)"
   xmlns:inkscape="http://www.inkscape.org/namespaces/inkscape"
   xmlns:sodipodi="http://sodipodi.sourceforge.net/DTD/sodipodi-0.dtd"
   xmlns="http://www.w3.org/2000/svg"
   xmlns:svg="http://www.w3.org/2000/svg"><sodipodi:namedview
     id="namedview878"
     pagecolor="#ffffff"
     bordercolor="#666666"
     borderopacity="1.0"
     inkscape:pageshadow="2"
     inkscape:pageopacity="0.0"
     inkscape:pagecheckerboard="0"
     showgrid="false"
     inkscape:zoom="0.41550003"
     inkscape:cx="605.29479"
     inkscape:cy="122.74367"
     inkscape:window-width="1312"
     inkscape:window-height="776"
     inkscape:window-x="0"
     inkscape:window-y="25"
     inkscape:window-maximized="0"
     inkscape:current-layer="svg824" /><defs
     id="defs828"><clipPath
       clipPathUnits="userSpaceOnUse"
       id="clipPath850"><path
         d="M 0,1000 H 1000 V 0 H 0 Z"
         id="path848" /></clipPath></defs><g
     id="g830"
     transform="matrix(1.3333333,0,0,-1.3333333,-59.829332,788.31851)"><g
       id="g832"
       transform="translate(565.0361,408.7617)"><path
         d="M 0,0 V 44.497 H 7.511 V 25.208 h 22.09 v 19.289 h 7.511 V 0 H 29.601 V 18.207 H 7.511 V 0 Z"
         style="fill:#a35d48;fill-opacity:1;fill-rule:nonzero;stroke:none"
         id="path834" /></g><g
       id="g836"
       transform="translate(640.0244,425.8203)"><path
         d="M 0,0 -8.084,18.335 -16.169,0 Z m -19.225,-6.937 -4.456,-10.122 h -8.02 l 19.605,44.497 h 8.023 L 15.532,-17.059 H 7.513 L 3.056,-6.937 Z"
         style="fill:#a35d48;fill-opacity:1;fill-rule:nonzero;stroke:none"
         id="path838" /></g><g
       id="g840"
       transform="translate(695.0879,453.2588)"><path
         d="m 0,0 h 7.511 v -44.497 h -8.148 l -25.209,32.466 v -32.466 h -7.511 V 0 h 7.511 L 0,-33.229 Z"
         style="fill:#a35d48;fill-opacity:1;fill-rule:nonzero;stroke:none"
         id="path842" /></g><g
       id="g844"><g
         id="g846"
         clip-path="url(#clipPath850)"><g
           id="g852"
           transform="translate(747.4785,431.042)"><path
             d="m 0,0 c 0,10.186 -5.836,15.277 -17.506,15.277 h -7.513 v -30.491 h 8.34 c 5.389,0 9.516,1.283 12.381,3.851 C -1.434,-8.795 0,-5.009 0,0 M 1.146,16.391 C 5.431,12.509 7.575,7.108 7.575,0.19 c 0,-6.917 -2.081,-12.393 -6.239,-16.422 -4.16,-4.034 -10.525,-6.048 -19.097,-6.048 H -32.53 v 44.497 h 15.278 c 7.978,0 14.11,-1.942 18.398,-5.826"
             style="fill:#a35d48;fill-opacity:1;fill-rule:nonzero;stroke:none"
             id="path854" /></g><g
           id="g856"
           transform="translate(782.2344,408.7617)"><path
             d="m 0,0 h -7.639 v 17.568 l -16.55,26.929 h 8.21 L -3.819,24.253 8.339,44.497 h 8.213 L 0,17.568 Z"
             style="fill:#a35d48;fill-opacity:1;fill-rule:nonzero;stroke:none"
             id="path858" /></g><g
           id="g860"
           transform="translate(811.9629,408.7617)"><path
             d="M 0,0 H -7.512 V 44.497 H 4.201 L 17.633,16.55 31.065,44.497 H 42.714 V 0 H 35.202 V 34.757 L 19.671,3.882 H 15.469 L 0,34.757 Z"
             style="fill:#a35d48;fill-opacity:1;fill-rule:nonzero;stroke:none"
             id="path862" /></g><g
           id="g864"
           transform="translate(892.5518,425.8203)"><path
             d="M 0,0 -8.084,18.335 -16.169,0 Z m -19.225,-6.937 -4.456,-10.122 h -8.02 l 19.606,44.497 h 8.022 L 15.532,-17.059 H 7.513 L 3.056,-6.937 Z"
             style="fill:#a35d48;fill-opacity:1;fill-rule:nonzero;stroke:none"
             id="path866" /></g><g
           id="g868"
           transform="translate(947.6162,453.2588)"><path
             d="m 0,0 h 7.512 v -44.497 h -8.149 l -25.209,32.466 v -32.466 h -7.511 V 0 h 7.511 L 0,-33.229 Z"
             style="fill:#a35d48;fill-opacity:1;fill-rule:nonzero;stroke:none"
             id="path870" /></g><g
           id="g872"
           transform="translate(357.4785,588.1079)"><path
             d="m 0,0 -54.87,-93.592 h 54.046 v -22.574 h -95.073 l 54.704,93.757 H -89.966 V 0 Z"
             style="fill:#3041d6;fill-opacity:1;fill-rule:nonzero;stroke:none"
             id="path874" /></g><g
           id="g876"
           transform="translate(403.6177,559.2729)"><path
             d="m 0,0 c -4.448,-3.46 -14.335,-13.183 -14.17,-29.496 0,-2.634 0.165,-8.402 2.966,-14.994 5.932,-14.664 19.937,-22.079 35.262,-22.079 11.533,0 17.96,4.119 21.749,7.25 8.898,7.25 13.347,18.619 13.347,29.823 0,4.451 -0.659,15.161 -8.733,24.716 C 47.125,-0.823 37.734,7.909 22.904,7.744 19.279,7.744 8.733,7.085 0,0 m 37.239,30.317 c 6.427,-1.482 21.42,-5.766 33.284,-19.772 4.943,-5.932 14.006,-19.773 14.006,-40.535 0,-4.613 -0.33,-14.17 -4.944,-25.21 -9.885,-24.057 -31.801,-35.096 -56.846,-35.096 -5.931,0 -23.727,0.494 -38.886,11.698 -8.239,6.097 -23.233,20.761 -23.233,47.785 0,4.448 0.329,14.829 4.942,26.2 9.393,23.396 31.802,36.579 56.518,36.579 2.307,0 8.568,-0.165 15.159,-1.649"
             style="fill:#3041d6;fill-opacity:1;fill-rule:nonzero;stroke:none"
             id="path878" /></g><g
           id="g880"
           transform="translate(529.3428,537.3584)"><path
             d="m 0,0 h 9.063 c 6.756,0.165 13.511,0.659 17.301,7.25 0.824,1.482 2.143,4.119 2.143,8.238 0,1.647 -0.165,5.932 -3.296,9.557 -4.285,4.943 -10.546,5.437 -16.643,5.601 H 0 Z m 6.427,50.914 c 3.131,0 6.096,0 9.226,-0.164 12.524,-0.495 24.716,-3.296 32.132,-14.83 5.109,-7.744 5.438,-16.313 5.438,-19.444 0,-10.545 -4.12,-21.914 -13.348,-27.847 -3.295,-2.141 -5.602,-2.964 -12.852,-4.613 L 60.637,-65.416 H 30.648 l -30.813,49.103 v -49.103 h -24.551 v 116.33 z"
             style="fill:#3041d6;fill-opacity:1;fill-rule:nonzero;stroke:none"
             id="path882" /></g><path
           d="m 625.903,471.942 h -25.376 v 116.33 h 25.376 z"
           style="fill:#3041d6;fill-opacity:1;fill-rule:nonzero;stroke:none"
           id="path884" /><g
           id="g886"
           transform="translate(677.8066,588.2725)"><path
             d="M 0,0 V -93.425 H 39.71 V -116.33 H -25.375 V 0 Z"
             style="fill:#3041d6;fill-opacity:1;fill-rule:nonzero;stroke:none"
             id="path888" /></g><g
           id="g890"
           transform="translate(757.0645,559.2729)"><path
             d="m 0,0 c -4.448,-3.46 -14.335,-13.183 -14.171,-29.496 0,-2.634 0.165,-8.402 2.967,-14.994 5.932,-14.664 19.936,-22.079 35.261,-22.079 11.534,0 17.961,4.119 21.75,7.25 8.897,7.25 13.347,18.619 13.347,29.823 0,4.451 -0.66,15.161 -8.733,24.716 C 47.125,-0.823 37.733,7.909 22.903,7.744 19.278,7.744 8.732,7.085 0,0 m 37.238,30.317 c 6.427,-1.482 21.421,-5.766 33.284,-19.772 4.944,-5.932 14.006,-19.773 14.006,-40.535 0,-4.613 -0.329,-14.17 -4.943,-25.21 -9.886,-24.057 -31.801,-35.096 -56.847,-35.096 -5.93,0 -23.726,0.494 -38.885,11.698 -8.24,6.097 -23.234,20.761 -23.234,47.785 0,4.448 0.33,14.829 4.943,26.2 9.392,23.396 31.802,36.579 56.518,36.579 2.307,0 8.568,-0.165 15.158,-1.649"
             style="fill:#3041d6;fill-opacity:1;fill-rule:nonzero;stroke:none"
             id="path892" /></g><g
           id="g894"
           transform="translate(869.4453,588.2725)"><path
             d="m 0,0 22.574,-66.898 c 1.648,-5.107 3.13,-10.216 4.448,-15.323 0.825,-2.967 1.319,-5.933 1.813,-8.899 1.812,6.756 3.625,13.347 5.602,19.938 1.483,4.614 2.966,8.897 4.45,13.348 L 58.329,0 H 85.683 L 40.205,-116.33 H 15.818 L -27.683,0 Z"
             style="fill:#3041d6;fill-opacity:1;fill-rule:nonzero;stroke:none"
             id="path896" /></g><path
           d="m 214.959,557.248 h -51.026 v -23.254 h 51.026 z"
           style="fill:#a35d48;fill-opacity:1;fill-rule:nonzero;stroke:none"
           id="path898" /><g
           id="g900"
           transform="translate(299.6772,557.2378)"><path
             d="m 0,0 -13.557,-23.248 h -62.66 V 0 Z"
             style="fill:#a35d48;fill-opacity:1;fill-rule:nonzero;stroke:none"
             id="path902" /></g><path
           d="m 163.933,471.942 h 51.026 v 23.255 h -51.026 z"
           style="fill:#a35d48;fill-opacity:1;fill-rule:nonzero;stroke:none"
           id="path904" /><g
           id="g906"
           transform="translate(263.5024,495.207)"><path
             d="M 0,0 -13.58,-23.27 H -40.042 V 0 Z"
             style="fill:#a35d48;fill-opacity:1;fill-rule:nonzero;stroke:none"
             id="path908" /></g><path
           d="m 258.814,565.017 h -65.122 v 23.247 h 65.122 z"
           style="fill:#a35d48;fill-opacity:1;fill-rule:nonzero;stroke:none"
           id="path910" /><path
           d="m 244.725,526.223 h -51.026 v -23.255 h 51.026 z"
           style="fill:#a35d48;fill-opacity:1;fill-rule:nonzero;stroke:none"
           id="path912" /><g
           id="g914"
           transform="translate(253.2275,526.2339)"><path
             d="M 0,0 H 28.374 L 14.794,-23.27 H 0 Z"
             style="fill:#a35d48;fill-opacity:1;fill-rule:nonzero;stroke:none"
             id="path916" /></g><path
           d="M 95.898,557.248 H 44.872 v -23.254 h 51.026 z"
           style="fill:#a35d48;fill-opacity:1;fill-rule:nonzero;stroke:none"
           id="path918" /><path
           d="m 155.429,557.248 h -51.026 v -23.254 h 51.026 z"
           style="fill:#a35d48;fill-opacity:1;fill-rule:nonzero;stroke:none"
           id="path920" /><path
           d="m 44.873,471.942 h 51.026 v 23.255 H 44.873 Z"
           style="fill:#a35d48;fill-opacity:1;fill-rule:nonzero;stroke:none"
           id="path922" /><path
           d="m 104.403,471.942 h 51.026 v 23.255 h -51.026 z"
           style="fill:#a35d48;fill-opacity:1;fill-rule:nonzero;stroke:none"
           id="path924" /><path
           d="M 125.664,588.272 H 74.638 v -23.254 h 51.026 z"
           style="fill:#a35d48;fill-opacity:1;fill-rule:nonzero;stroke:none"
           id="path926" /><path
           d="m 185.194,588.272 h -51.026 v -23.254 h 51.026 z"
           style="fill:#a35d48;fill-opacity:1;fill-rule:nonzero;stroke:none"
           id="path928" /><path
           d="m 74.638,502.968 h 51.026 v 23.255 H 74.638 Z"
           style="fill:#a35d48;fill-opacity:1;fill-rule:nonzero;stroke:none"
           id="path930" /><path
           d="m 185.194,526.223 h -51.026 v -23.255 h 51.026 z"
           style="fill:#a35d48;fill-opacity:1;fill-rule:nonzero;stroke:none"
           id="path932" /></g></g></g></svg>
